<?xml version="1.0" encoding="utf-8"?>
<!DOCTYPE svg PUBLIC "-//W3C//DTD SVG 1.1//EN" "http://www.w3.org/Graphics/SVG/1.1/DTD/svg11.dtd">
<svg version="1.1" id="icon-bug" xmlns="http://www.w3.org/2000/svg" xmlns:xlink="http://www.w3.org/1999/xlink" x="0px" y="0px" width="128px" height="128px" viewBox="0 0 128 128" enable-background="new 0 0 128 128" xml:space="preserve">
   <path fill="#bbc2fe" d="M128,83.121l-10.922-14.677l-8.398-0.969 c0.003,0.267,0.036,0.525,0.036,0.794c0,10.348-2.219,20.229-6.106,28.941l16.387,8.533l-2.369,3.681l0.677,0.388L106.538,128 l2.908-17.688l-10.903-5.397c-5.897,9.541-14.017,17.039-23.544,21.143c-0.079-0.026-8.549-25.786-8.778-75.201 c14.053-0.866,26.337-6.952,34.096-15.47c0.882,1.578,1.607,3.276,2.363,4.95l11.917-3.668l8.799-12.189v16.253l-18.538,5.108 c1.544,4.453,2.634,9.162,3.26,14.046l15.277,1.162v2.272l0.034-0.007L128,83.121z M81.696,104.75 c2.543,0.786,5.464-0.947,6.524-3.871c1.06-2.924-0.143-5.932-2.687-6.718c-2.543-0.786-5.464,0.947-6.524,3.871 C77.949,100.957,79.152,103.964,81.696,104.75z M88.669,55.483c-4.862-0.275-9.105,4.034-9.475,9.624 c-0.371,5.59,3.271,10.345,8.133,10.62c4.862,0.275,9.105-4.034,9.475-9.624C97.173,60.513,93.531,55.758,88.669,55.483z M83.46,16.499c4.383,3.366,8.33,7.679,11.627,12.828C78.285,43.233,46.62,43.476,29.373,29.054 c3.319-5.123,7.288-9.403,11.689-12.734c-2.143-2.851-4.587-5.781-7.217-8.211c-6.578-6.075-14.871-7.689-14.871-7.689 s10.561-1.675,20.827,7.806c1.949,1.8,3.646,3.678,5.12,5.496c5.293-3.117,11.1-4.897,17.22-4.897c6.284,0,12.244,1.861,17.65,5.139 c1.489-1.977,3.259-4.028,5.366-5.974c10.266-9.481,20.639-7.89,20.639-7.89s-8.821,2.052-15.399,8.126 C87.739,10.682,85.422,13.636,83.46,16.499z M24.525,34.61c7.354,8.522,19.197,14.773,32.853,16.105 c-0.242,49.54-9.873,76.483-8.777,75.343c-8.998-3.876-16.575-10.809-22.195-19.633l-7.851,3.887L21.462,128l-10.767-18.189 l0.677-0.388l-2.369-3.681l13.269-6.909c-4.209-9.144-6.572-19.676-6.572-30.705c0-0.08,0.008-0.157,0.008-0.237l-4.787,0.553 L0,83.121l4.569-19.809l0.034,0.007v-2.272l11.582-0.881c0.605-5.34,1.775-10.473,3.498-15.28l-15.08-4.155V24.479l8.799,12.189 l8.61,2.65C22.774,37.69,23.651,36.15,24.525,34.61z M33.727,98.259c0.969,4.398,4.856,7.382,8.681,6.663 c3.826-0.719,6.142-4.867,5.173-9.265c-0.969-4.398-4.856-7.382-8.681-6.663C35.074,89.712,32.758,93.861,33.727,98.259z M32.607,74.755c3.607,0.204,6.754-2.993,7.029-7.14c0.275-4.147-2.426-7.674-6.034-7.878c-3.607-0.204-6.754,2.993-7.029,7.14 C26.299,71.024,29,74.551,32.607,74.755z M66.2,121.995c-4.4,8.126-8.799,0-8.799,0l4.4-28.442L66.2,121.995z"/>
</svg>
