<?xml version="1.0" encoding="utf-8"?>
<!DOCTYPE svg PUBLIC "-//W3C//DTD SVG 1.1//EN" "http://www.w3.org/Graphics/SVG/1.1/DTD/svg11.dtd">
<svg version="1.1" id="Layer_1" xmlns="http://www.w3.org/2000/svg" xmlns:xlink="http://www.w3.org/1999/xlink" x="0px" y="0px"
	 width="128px" height="128px" viewBox="0 0 128 128" enable-background="new 0 0 128 128" xml:space="preserve">
<g>
	<path fill="#C33A32" d="M77.236,48.15l16.871-20.118c-4.104-3.466-8.707-6.166-13.807-8.098c-5.101-1.932-10.54-2.899-16.317-2.899
		v26.125c2.779,0.03,5.4,0.573,7.859,1.638C73.851,45.667,75.643,46.791,77.236,48.15z"/>
	<path fill="#E75300" d="M82.9,55.854c0.63,1.454,1.072,2.965,1.34,4.53l13.333-2.349c-0.677-3.865-1.981-7.521-3.915-10.968
		c-1.932-3.446-4.512-6.524-7.74-9.234l-8.671,10.326c0.411,0.351,0.817,0.707,1.2,1.09C80.321,51.123,81.805,53.324,82.9,55.854z"
		/>
	<path fill="#F38B00" d="M84.544,63.953c0,2.869-0.547,5.558-1.644,8.069c-0.334,0.766-0.717,1.49-1.123,2.195l11.759,6.783
		c1.978-3.373,3.334-7.003,4.068-10.89c0.738-3.905,0.727-7.929-0.03-12.073L84.24,60.384
		C84.438,61.544,84.544,62.732,84.544,63.953z"/>
	<path fill="#FFCE00" d="M93.535,80.999c-0.009,0.016-0.017,0.032-0.027,0.047L81.76,74.244c-0.923,1.594-2.018,3.042-3.312,4.322
		c-1.872,1.853-4.074,3.308-6.605,4.363c-0.273,0.114-0.55,0.219-0.827,0.321l10.48,28.757c2.749-0.995,5.399-2.221,7.949-3.676
		c2.55-1.454,4.961-3.117,7.232-4.991c2.271-1.872,4.393-3.964,6.365-6.276c1.972-2.311,3.735-4.821,5.289-7.531L93.535,80.999z"/>
	<path fill="#3FD5AE" d="M56.922,83.399l-4.593,12.649c-0.006-0.002-0.013-0.005-0.019-0.007L42.108,124.08
		c6.854,2.51,14.006,3.816,21.457,3.915c7.452,0.1,14.882-1.205,22.294-3.915L71.005,83.254c-2.286,0.838-4.706,1.259-7.261,1.259
		C61.344,84.513,59.071,84.138,56.922,83.399z"/>
	<path fill="#009BDE" d="M55.675,82.929c-2.51-1.055-4.692-2.51-6.545-4.363c-1.246-1.246-2.296-2.654-3.181-4.197l-11.483,6.633
		c1.911,3.381,4.369,6.375,7.373,8.981c3.004,2.606,6.494,4.625,10.47,6.059l4.601-12.646C56.494,83.252,56.082,83.1,55.675,82.929z
		"/>
	<path fill="#004A97" d="M45.944,74.36c-0.429-0.749-0.832-1.52-1.176-2.339c-1.055-2.51-1.584-5.2-1.584-8.069
		c0-1.234,0.104-2.435,0.299-3.607l-25.701-4.522c0.001-0.008,0.003-0.016,0.005-0.024l-16.8-2.965
		c-0.637,3.586-0.966,7.212-0.986,10.878c-0.02,3.666,0.269,7.322,0.867,10.968c0.598,3.646,1.535,7.262,2.809,10.848
		c1.276,3.586,2.889,7.073,4.841,10.46l25.948-14.987c-0.003-0.005-0.006-0.01-0.009-0.015L45.944,74.36z"/>
	<path fill="#001F5B" d="M44.768,55.854c1.056-2.53,2.51-4.731,4.363-6.604c0.454-0.459,0.929-0.893,1.422-1.305L33.851,28.039
		c-4.1,3.426-7.554,7.488-10.361,12.185c-2.805,4.696-4.705,9.888-5.703,15.576l25.698,4.535
		C43.744,58.788,44.168,57.293,44.768,55.854z"/>
	<path fill="#682666" d="M50.556,47.941c1.52-1.269,3.225-2.318,5.119-3.145c2.511-1.096,5.2-1.644,8.069-1.644
		c0.08,0,0.159,0.005,0.239,0.006V0c-3.626,0-7.252,0.309-10.878,0.926c-3.626,0.618-7.182,1.545-10.669,2.779
		c-3.486,1.236-6.873,2.789-10.16,4.662c-3.287,1.873-6.425,4.064-9.414,6.575l10.989,13.097c0.003-0.003,0.006-0.005,0.009-0.008
		L50.556,47.941z"/>
</g>
</svg>
